<svg xmlns="http://www.w3.org/2000/svg" xmlns:xlink="http://www.w3.org/1999/xlink" preserveAspectRatio="xMidYMid" width="18" height="304" viewBox="0 0 18 304">
  <defs>
    <style>
      .cls-1 {
        fill: #fff;
        fill-rule: evenodd;
      }
    </style>
  </defs>
  <g>
    <path d="M9.028,9.590 L6.689,12.001 L4.349,9.590 L2.003,7.172 L4.342,4.763 L6.688,7.181 L13.658,-0.000 L15.997,2.407 L9.028,9.590 Z" class="cls-1"/>
    <path d="M14.000,43.000 L4.000,43.000 C3.448,43.000 3.000,42.552 3.000,42.000 L3.000,29.000 C3.000,28.448 3.448,28.000 4.000,28.000 L7.000,28.000 L7.000,27.000 L11.000,27.000 L11.000,28.000 L14.000,28.000 C14.552,28.000 15.000,28.448 15.000,29.000 L15.000,42.000 C15.000,42.552 14.552,43.000 14.000,43.000 ZM14.000,29.000 L11.000,29.000 L7.000,29.000 L4.000,29.000 L4.000,42.000 L14.000,42.000 L14.000,29.000 ZM6.000,33.000 L5.000,33.000 L5.000,32.000 L6.000,32.000 L6.000,33.000 ZM6.000,35.000 L5.000,35.000 L5.000,34.000 L6.000,34.000 L6.000,35.000 ZM6.000,37.000 L5.000,37.000 L5.000,36.000 L6.000,36.000 L6.000,37.000 ZM6.000,39.000 L5.000,39.000 L5.000,38.000 L6.000,38.000 L6.000,39.000 ZM13.000,38.000 L13.000,39.000 L7.000,39.000 L7.000,38.000 L13.000,38.000 ZM7.000,36.000 L13.000,36.000 L13.000,37.000 L7.000,37.000 L7.000,36.000 ZM7.000,34.000 L13.000,34.000 L13.000,35.000 L7.000,35.000 L7.000,34.000 ZM7.000,32.000 L13.000,32.000 L13.000,33.000 L7.000,33.000 L7.000,32.000 Z" class="cls-1"/>
    <path d="M9.000,72.998 L1.002,65.000 L9.000,57.002 L16.998,65.000 L9.000,72.998 ZM4.415,65.000 L9.000,69.585 L13.585,65.000 L9.000,60.415 L4.415,65.000 ZM7.996,66.004 L7.996,63.996 L10.004,63.996 L10.004,66.004 L7.996,66.004 Z" class="cls-1"/>
    <path d="M1.993,92.865 C1.993,92.865 5.617,88.942 8.032,87.007 L8.032,90.339 C8.032,90.339 15.883,89.039 15.993,96.026 C15.993,96.026 16.158,98.220 14.566,99.993 C14.566,99.993 14.885,97.155 13.348,95.005 C13.348,95.005 11.847,93.569 8.032,94.155 L8.087,97.434 C7.648,97.434 1.993,92.865 1.993,92.865 Z" class="cls-1"/>
    <path d="M16.000,126.528 C16.000,127.628 14.880,125.926 14.880,125.926 L12.042,122.763 C11.726,122.443 12.381,122.007 12.381,122.007 L15.271,119.611 C16.137,118.733 15.984,119.564 15.984,119.564 L16.000,126.528 ZM9.275,123.641 C8.997,124.000 8.740,123.649 8.740,123.649 L2.549,118.560 C2.007,117.995 3.076,118.000 3.076,118.000 L14.896,118.000 C15.959,118.000 15.419,118.532 15.419,118.532 L9.275,123.641 ZM2.729,119.611 L5.619,122.007 C5.619,122.007 6.274,122.443 5.958,122.763 L3.120,125.926 C3.120,125.926 2.000,127.628 2.000,126.528 L2.016,119.564 C2.016,119.564 1.863,118.733 2.729,119.611 ZM6.479,123.089 C6.794,122.539 7.598,123.674 7.598,123.674 L8.718,124.809 C9.033,125.092 9.278,124.809 9.278,124.809 L10.415,123.674 C11.272,122.592 11.535,123.124 11.535,123.124 L14.876,126.866 C15.996,127.983 14.894,127.983 14.894,127.983 L3.137,127.983 C2.018,127.983 3.120,126.831 3.120,126.831 L6.479,123.089 Z" class="cls-1"/>
    <path d="M14.000,156.000 L11.020,156.000 L7.000,160.020 L7.000,156.000 L4.000,156.000 C2.895,156.000 2.000,155.105 2.000,154.000 L2.000,147.000 C2.000,145.895 2.895,145.000 4.000,145.000 L14.000,145.000 C15.105,145.000 16.000,145.895 16.000,147.000 L16.000,154.000 C16.000,155.105 15.105,156.000 14.000,156.000 Z" class="cls-1"/>
    <path d="M1.037,187.861 C1.188,188.800 1.715,189.627 2.521,190.189 L2.701,190.315 C3.348,190.766 4.114,191.005 4.915,191.005 C6.103,191.005 7.231,190.463 7.934,189.555 L9.913,186.998 C10.861,185.772 10.853,184.159 10.027,182.954 L8.699,184.670 C8.757,185.096 8.653,185.544 8.364,185.917 L6.385,188.474 C6.038,188.922 5.502,189.179 4.915,189.179 C4.526,189.179 4.154,189.063 3.839,188.843 L3.659,188.718 C3.267,188.444 3.011,188.042 2.937,187.585 C2.863,187.128 2.981,186.672 3.270,186.300 L5.249,183.742 C5.511,183.404 5.880,183.175 6.298,183.082 L7.656,181.326 C7.353,181.251 7.040,181.210 6.719,181.210 C5.531,181.210 4.402,181.753 3.699,182.661 L1.721,185.218 C1.129,185.983 0.886,186.922 1.037,187.861 ZM12.004,179.369 C11.957,179.078 11.794,178.822 11.544,178.648 C11.343,178.508 11.106,178.434 10.858,178.434 C10.490,178.434 10.140,178.602 9.923,178.883 L6.115,183.803 C5.932,184.040 5.857,184.330 5.904,184.621 C5.951,184.913 6.114,185.169 6.363,185.344 C6.564,185.484 6.801,185.557 7.049,185.557 C7.417,185.557 7.767,185.389 7.985,185.108 L11.792,180.187 C11.976,179.950 12.051,179.660 12.004,179.369 ZM9.289,179.218 C9.261,178.824 9.366,178.422 9.630,178.080 L11.608,175.523 C11.955,175.075 12.490,174.818 13.078,174.818 C13.467,174.818 13.840,174.934 14.155,175.154 L14.336,175.280 C15.144,175.844 15.319,176.929 14.724,177.698 L12.745,180.255 C12.463,180.620 12.054,180.850 11.595,180.926 L10.263,182.649 C10.589,182.737 10.927,182.787 11.274,182.787 C12.462,182.787 13.592,182.244 14.294,181.336 L16.273,178.779 C17.495,177.199 17.136,174.969 15.473,173.808 L15.292,173.682 C14.646,173.231 13.880,172.992 13.078,172.992 C11.890,172.992 10.762,173.534 10.059,174.442 L8.081,176.999 C7.150,178.203 7.142,179.781 7.925,180.980 L9.289,179.218 Z" class="cls-1"/>
    <path d="M4.000,218.000 L4.000,204.000 L10.000,204.000 L10.000,209.000 L15.000,209.000 L15.000,218.000 L4.000,218.000 ZM11.000,204.000 L15.000,208.000 L11.000,208.000 L11.000,204.000 Z" class="cls-1"/>
    <path d="M8.829,248.980 L10.487,248.980 L10.487,247.117 C13.596,246.848 14.985,244.986 14.985,242.875 C14.985,240.101 12.643,239.294 10.487,238.735 L10.487,235.155 C11.503,235.362 12.498,235.838 13.285,236.624 L14.653,234.823 C13.576,233.789 12.166,233.126 10.487,232.940 L10.487,231.015 L8.829,231.015 L8.829,232.919 C6.155,233.147 4.455,234.823 4.455,236.935 C4.455,239.625 6.694,240.391 8.829,240.929 L8.829,244.944 C7.336,244.717 6.134,243.930 5.367,243.082 L3.999,244.965 C5.097,246.103 6.694,246.952 8.829,247.117 L8.829,248.980 ZM12.498,243.102 C12.498,243.909 11.917,244.758 10.487,244.965 L10.487,241.364 C11.627,241.716 12.498,242.171 12.498,243.102 ZM6.942,236.748 C6.942,235.838 7.668,235.196 8.829,235.051 L8.829,238.301 C7.730,237.969 6.942,237.555 6.942,236.748 Z" class="cls-1"/>
    <path d="M4.000,277.000 L4.000,263.000 L15.000,263.000 L15.000,277.000 L4.000,277.000 ZM6.000,275.000 L11.000,275.000 L11.000,274.000 L6.000,274.000 L6.000,275.000 ZM10.000,265.000 L6.000,265.000 L6.000,267.000 L10.000,267.000 L10.000,265.000 ZM13.000,270.000 L6.000,270.000 L6.000,271.000 L13.000,271.000 L13.000,270.000 ZM13.000,272.000 L6.000,272.000 L6.000,273.000 L13.000,273.000 L13.000,272.000 Z" class="cls-1"/>
    <path d="M16.843,303.998 L1.157,303.998 C0.515,303.998 -0.005,303.487 -0.005,302.856 L-0.005,298.146 C-0.005,297.515 3.481,294.560 3.481,294.560 C3.989,294.025 4.682,294.006 4.682,294.006 L13.357,294.002 C14.046,294.002 14.519,294.578 14.519,294.578 C14.519,294.578 18.005,297.515 18.005,298.146 L18.005,302.856 C18.005,303.487 17.485,303.998 16.843,303.998 ZM13.938,295.247 C13.684,294.836 13.394,295.016 13.394,295.016 L4.661,295.016 C4.358,295.011 4.044,295.247 4.044,295.247 L2.000,298.000 L6.469,298.000 C6.469,298.000 6.980,298.146 6.980,298.788 L6.980,299.437 C6.980,299.437 6.980,300.008 7.561,300.008 L10.421,300.008 C10.421,300.008 11.002,299.937 11.002,299.437 L11.002,298.681 C11.002,298.681 10.987,298.000 11.531,298.000 L16.000,298.000 L13.938,295.247 ZM5.483,296.004 L12.502,296.004 C12.502,296.004 13.002,296.237 13.002,296.998 L4.998,296.988 C4.998,296.988 4.998,296.004 5.483,296.004 Z" class="cls-1"/>
  </g>
</svg>
